<svg id="Warstwa_1" data-name="Warstwa 1" xmlns="http://www.w3.org/2000/svg" viewBox="0 0 803.61 504.87"><defs><style>.cls-1{opacity:0.5;}.cls-2{fill:#7bafd4;}</style></defs><g class="cls-1"><path class="cls-2" d="M0,73.52C18.51,45.83,6.41,61.65,29.86,37.66,53.14,13.85,86.64-.48,119.93,0c71.24,1,123.47,73.65,194,83.76,39.52,5.66,78.85-9.23,115.54-24.95s74.46-32.9,114.37-32.09,82.61,25.94,88.69,65.4c3.65,23.76-5.85,50.22,6.3,71,12.9,22,42.55,25.43,67.8,29.19,24.09,3.59,48.52,10,67.87,24.83s32.63,39.45,28.29,63.41c-3,16.55-13.66,30.56-24.43,43.48-14.36,17.16-31.52,34.82-53.77,37.28-19.06,2.11-37.24-7.5-56-11.37-34.86-7.16-73.24,7.38-94.61,35.84C547.17,421.51,544.26,477,504.71,497.7c-34.4,18-75.54-1.5-110.28-18.87-42.82-21.42-91.35-40.27-137.56-27.75-29.3,7.94-57.82,16-86.47,26-9.52,3.33-42.51,6.68-51.95,3.55C84,469.2,34.43,436.32,0,424.89Z" transform="translate(0 0)"/></g></svg>