<svg id="Warstwa_1" data-name="Warstwa 1" xmlns="http://www.w3.org/2000/svg" viewBox="0 0 803.6 504.89"><defs><style>.cls-1{opacity:0.5;}.cls-2{fill:#aed5b2;}</style></defs><g class="cls-1"><path class="cls-2" d="M0,356.74c18.51-27.68,6.41-11.86,29.86-35.85,23.28-23.81,56.78-38.14,90.07-37.65,71.24,1,123.47,73.65,194,83.76,39.52,5.66,78.85-9.23,115.54-24.95s74.46-32.9,114.37-32.09,82.61,25.94,88.69,65.39c3.65,23.77-5.85,50.23,6.3,71,12.9,22,42.55,25.44,67.8,29.2,24.09,3.58,48.52,10,67.87,24.83s32.63,39.44,28.29,63.41c-3,16.55-13.66,30.56-24.43,43.48-14.33,17.19-31.51,34.85-53.76,37.31-19.06,2.11-37.24-7.51-56-11.37C633.71,626,595.33,640.56,574,669c-26.81,35.72-29.72,91.17-69.27,111.91-34.4,18-75.54-1.5-110.28-18.88-42.82-21.41-91.35-40.27-137.56-27.74-29.3,7.94-57.82,16-86.47,26-9.52,3.33-42.51,6.68-51.95,3.55C84,752.43,34.43,719.55,0,708.12Z" transform="translate(0 -283.23)"/></g></svg>