<svg id="Warstwa_1" data-name="Warstwa 1" xmlns="http://www.w3.org/2000/svg" viewBox="0 0 803.6 504.89"><defs><style>.cls-1{opacity:0.5;}.cls-2{fill:#bda8f0;}</style></defs><g class="cls-1"><path class="cls-2" d="M1000,341.32c-18.51-27.69-6.41-11.87-29.86-35.86-23.28-23.81-56.78-38.14-90.07-37.65-71.24,1-123.47,73.65-194,83.76-39.52,5.66-78.85-9.23-115.54-24.95s-74.46-32.9-114.37-32.09-82.61,25.94-88.69,65.4c-3.65,23.76,5.85,50.22-6.3,71-12.9,22-42.55,25.43-67.8,29.19-24.09,3.59-48.52,10-67.87,24.83s-32.63,39.45-28.29,63.41c3,16.55,13.66,30.56,24.43,43.48C236,609,253.16,626.66,275.41,629.12c19.06,2.11,37.24-7.5,56-11.37,34.86-7.16,73.24,7.38,94.61,35.84,26.81,35.72,29.72,91.17,69.27,111.91,34.4,18,75.54-1.5,110.28-18.87,42.82-21.42,91.35-40.27,137.56-27.75,29.3,7.94,57.82,16,86.47,26,9.52,3.33,42.51,6.68,52,3.55C916,737,965.57,704.12,1000,692.69Z" transform="translate(-196.4 -267.8)"/></g></svg>