<svg id="Warstwa_1" data-name="Warstwa 1" xmlns="http://www.w3.org/2000/svg" viewBox="0 0 803.61 504.87"><defs><style>.cls-1{fill:#edff00;}</style></defs><path class="cls-1" d="M803.6,73.52c-18.51-27.69-6.41-11.87-29.86-35.86C750.46,13.85,717-.48,683.67,0c-71.24,1-123.47,73.65-194,83.76-39.52,5.66-78.85-9.23-115.54-24.95s-74.46-32.9-114.37-32.09-82.61,25.94-88.69,65.4c-3.65,23.76,5.85,50.22-6.3,71-12.9,22-42.55,25.43-67.8,29.19-24.09,3.59-48.52,10-67.87,24.83S-3.53,256.6.81,280.56c3,16.55,13.66,30.56,24.43,43.48C39.6,341.2,56.76,358.86,79,361.32c19.06,2.11,37.24-7.5,56-11.37,34.86-7.16,73.24,7.38,94.61,35.84,26.81,35.72,29.72,91.17,69.27,111.91,34.4,18,75.54-1.5,110.28-18.87,42.82-21.42,91.35-40.27,137.56-27.75,29.3,7.94,57.82,16,86.47,26,9.52,3.33,42.51,6.68,52,3.55,34.4-11.43,84-44.31,118.4-55.74Z" transform="translate(0.01 0)"/></svg>